HIERARCHY
ROOT Hips
{
  OFFSET 0.0502701 92.146 0
  CHANNELS 6 Xposition Yposition Zposition Zrotation Xrotation Yrotation
  JOINT Bip01_Pelvis
  {
    OFFSET 0 0 0
    CHANNELS 6 Xposition Yposition Zposition Zrotation Xrotation Yrotation
    JOINT BN_Tai_01
    {
      OFFSET -4.6544 -2.06234 0
      CHANNELS 6 Xposition Yposition Zposition Zrotation Xrotation Yrotation
      JOINT BN_Tai_R_01
      {
        OFFSET 10.2279 -0.119812 3.68897
        CHANNELS 6 Xposition Yposition Zposition Zrotation Xrotation Yrotation
        JOINT BN_Tai_R_02
        {
          OFFSET 15.0421 0 1.52588e-005
          CHANNELS 6 Xposition Yposition Zposition Zrotation Xrotation Yrotation
          End Site
          {
            OFFSET 0 0 0
          }
        }
      }
      JOINT BN_Tai_L_01
      {
        OFFSET 10.2279 -0.119797 -3.68907
        CHANNELS 6 Xposition Yposition Zposition Zrotation Xrotation Yrotation
        JOINT BN_Tai_L_02
        {
          OFFSET 15.0421 0 0
          CHANNELS 6 Xposition Yposition Zposition Zrotation Xrotation Yrotation
          End Site
          {
            OFFSET 0 0 0
          }
        }
      }
    }
    JOINT Bip01_Spine
    {
      OFFSET 2.7319 1.49192 0
      CHANNELS 6 Xposition Yposition Zposition Zrotation Xrotation Yrotation
      JOINT Bip01_R_Thigh
      {
        OFFSET -2.85206 -1.24717 -6.20578
        CHANNELS 6 Xposition Yposition Zposition Zrotation Xrotation Yrotation
        JOINT Bip01_R_Calf
        {
          OFFSET 6.73247 0 0
          CHANNELS 6 Xposition Yposition Zposition Zrotation Xrotation Yrotation
          JOINT Bip01_R_HorseLink
          {
            OFFSET 8.08523 0 0
            CHANNELS 6 Xposition Yposition Zposition Zrotation Xrotation Yrotation
            JOINT Bip01_R_Foot
            {
              OFFSET 8.97518 0 0
              CHANNELS 6 Xposition Yposition Zposition Zrotation Xrotation Yrotation
              JOINT BN_Toe_R_30
              {
                OFFSET 1.58762 -0.234982 -0.295153
                CHANNELS 6 Xposition Yposition Zposition Zrotation Xrotation Yrotation
                JOINT BN_Toe_R_31
                {
                  OFFSET 3.03849 0 0
                  CHANNELS 6 Xposition Yposition Zposition Zrotation Xrotation Yrotation
                  End Site
                  {
                    OFFSET 0 0 0
                  }
                }
              }
              JOINT BN_Toe_R_00
              {
                OFFSET 1.65463 0.933666 1.02414
                CHANNELS 6 Xposition Yposition Zposition Zrotation Xrotation Yrotation
                JOINT BN_Toe_R_01
                {
                  OFFSET 3.51775 0 0
                  CHANNELS 6 Xposition Yposition Zposition Zrotation Xrotation Yrotation
                  End Site
                  {
                    OFFSET 0 0 0
                  }
                }
              }
              JOINT BN_Toe_R_20
              {
                OFFSET 1.47309 1.0106 -1.16708
                CHANNELS 6 Xposition Yposition Zposition Zrotation Xrotation Yrotation
                JOINT BN_Toe_R_21
                {
                  OFFSET 3.94896 0 0
                  CHANNELS 6 Xposition Yposition Zposition Zrotation Xrotation Yrotation
                  End Site
                  {
                    OFFSET 0 0 0
                  }
                }
              }
              JOINT BN_Toe_R_10
              {
                OFFSET 1.07522 1.64225 0.0223596
                CHANNELS 6 Xposition Yposition Zposition Zrotation Xrotation Yrotation
                JOINT BN_Toe_R_11
                {
                  OFFSET 4.09655 0 0
                  CHANNELS 6 Xposition Yposition Zposition Zrotation Xrotation Yrotation
                  End Site
                  {
                    OFFSET 0 0 0
                  }
                }
              }
              JOINT Bip01_R_Toe0
              {
                OFFSET 2.04238 1.88275 0
                CHANNELS 6 Xposition Yposition Zposition Zrotation Xrotation Yrotation
                End Site
                {
                  OFFSET 0 0 0
                }
              }
            }
          }
        }
      }
      JOINT Bip01_L_Thigh
      {
        OFFSET -2.85154 -1.24849 6.20577
        CHANNELS 6 Xposition Yposition Zposition Zrotation Xrotation Yrotation
        JOINT Bip01_L_Calf
        {
          OFFSET 6.73247 0 0
          CHANNELS 6 Xposition Yposition Zposition Zrotation Xrotation Yrotation
          JOINT Bip01_L_HorseLink
          {
            OFFSET 8.08524 0 0
            CHANNELS 6 Xposition Yposition Zposition Zrotation Xrotation Yrotation
            JOINT Bip01_L_Foot
            {
              OFFSET 8.97521 0 0
              CHANNELS 6 Xposition Yposition Zposition Zrotation Xrotation Yrotation
              JOINT BN_Toe_L_00
              {
                OFFSET 1.65461 0.933701 -1.02419
                CHANNELS 6 Xposition Yposition Zposition Zrotation Xrotation Yrotation
                JOINT BN_Toe_L_01
                {
                  OFFSET 3.51778 0 0
                  CHANNELS 6 Xposition Yposition Zposition Zrotation Xrotation Yrotation
                  End Site
                  {
                    OFFSET 0 0 0
                  }
                }
              }
              JOINT BN_Toe_L_10
              {
                OFFSET 1.07523 1.6422 -0.0221281
                CHANNELS 6 Xposition Yposition Zposition Zrotation Xrotation Yrotation
                JOINT BN_Toe_L_11
                {
                  OFFSET 4.09657 0 0
                  CHANNELS 6 Xposition Yposition Zposition Zrotation Xrotation Yrotation
                  End Site
                  {
                    OFFSET 0 0 0
                  }
                }
              }
              JOINT BN_Toe_L_30
              {
                OFFSET 1.58761 -0.234954 0.295135
                CHANNELS 6 Xposition Yposition Zposition Zrotation Xrotation Yrotation
                JOINT BN_Toe_L_31
                {
                  OFFSET 3.03847 0 0
                  CHANNELS 6 Xposition Yposition Zposition Zrotation Xrotation Yrotation
                  End Site
                  {
                    OFFSET 0 0 0
                  }
                }
              }
              JOINT BN_Toe_L_20
              {
                OFFSET 1.4731 1.01055 1.1673
                CHANNELS 6 Xposition Yposition Zposition Zrotation Xrotation Yrotation
                JOINT BN_Toe_L_21
                {
                  OFFSET 3.94897 0 0
                  CHANNELS 6 Xposition Yposition Zposition Zrotation Xrotation Yrotation
                  End Site
                  {
                    OFFSET 0 0 0
                  }
                }
              }
              JOINT Bip01_L_Toe0
              {
                OFFSET 2.04238 1.88276 0
                CHANNELS 6 Xposition Yposition Zposition Zrotation Xrotation Yrotation
                End Site
                {
                  OFFSET 0 0 0
                }
              }
            }
          }
        }
      }
      JOINT Bip01_Spine1
      {
        OFFSET 8.6167 -0.00679016 0
        CHANNELS 6 Xposition Yposition Zposition Zrotation Xrotation Yrotation
        JOINT BN_Wing_R_01
        {
          OFFSET 0.267445 -6.12421 -7.49305
          CHANNELS 6 Xposition Yposition Zposition Zrotation Xrotation Yrotation
          JOINT BN_Wing_R_02
          {
            OFFSET 14.7158 0 0
            CHANNELS 6 Xposition Yposition Zposition Zrotation Xrotation Yrotation
            JOINT BN_Wing_R_03
            {
              OFFSET 19.0858 0 0
              CHANNELS 6 Xposition Yposition Zposition Zrotation Xrotation Yrotation
              JOINT BN_Wing_R_05
              {
                OFFSET 2.68908 -0.270637 0.785261
                CHANNELS 6 Xposition Yposition Zposition Zrotation Xrotation Yrotation
                JOINT BN_Wing_R_06
                {
                  OFFSET 21.1083 0 0
                  CHANNELS 6 Xposition Yposition Zposition Zrotation Xrotation Yrotation
                  End Site
                  {
                    OFFSET 0 0 0
                  }
                }
              }
              JOINT BN_Wing_R_04
              {
                OFFSET 27.642 0 0
                CHANNELS 6 Xposition Yposition Zposition Zrotation Xrotation Yrotation
                End Site
                {
                  OFFSET 0 0 0
                }
              }
            }
          }
        }
        JOINT BN_Wing_L_01
        {
          OFFSET 0.267452 -6.12421 7.49305
          CHANNELS 6 Xposition Yposition Zposition Zrotation Xrotation Yrotation
          JOINT BN_Wing_L_02
          {
            OFFSET 14.7158 0 0
            CHANNELS 6 Xposition Yposition Zposition Zrotation Xrotation Yrotation
            JOINT BN_Wing_L_03
            {
              OFFSET 19.0858 0 0
              CHANNELS 6 Xposition Yposition Zposition Zrotation Xrotation Yrotation
              JOINT BN_Wing_L_05
              {
                OFFSET 2.68908 -0.270635 -0.785254
                CHANNELS 6 Xposition Yposition Zposition Zrotation Xrotation Yrotation
                JOINT BN_Wing_L_06
                {
                  OFFSET 21.1083 0 0
                  CHANNELS 6 Xposition Yposition Zposition Zrotation Xrotation Yrotation
                  End Site
                  {
                    OFFSET 0 0 0
                  }
                }
              }
              JOINT BN_Wing_L_04
              {
                OFFSET 27.642 0 1.14441e-005
                CHANNELS 6 Xposition Yposition Zposition Zrotation Xrotation Yrotation
                End Site
                {
                  OFFSET 0 0 0
                }
              }
            }
          }
        }
        JOINT Bip01_Neck
        {
          OFFSET 7.59958 -1.43237 0
          CHANNELS 6 Xposition Yposition Zposition Zrotation Xrotation Yrotation
          JOINT Bip01_Neck1
          {
            OFFSET 3.64749 -0.00262451 0
            CHANNELS 6 Xposition Yposition Zposition Zrotation Xrotation Yrotation
            JOINT Bip01_Neck2
            {
              OFFSET 3.32331 -0.00284576 0
              CHANNELS 6 Xposition Yposition Zposition Zrotation Xrotation Yrotation
              JOINT Bip01_Head
              {
                OFFSET 4.63256 -0.573471 0
                CHANNELS 6 Xposition Yposition Zposition Zrotation Xrotation Yrotation
                JOINT BN_Jaw
                {
                  OFFSET 1.05386 2.23561 0
                  CHANNELS 6 Xposition Yposition Zposition Zrotation Xrotation Yrotation
                  End Site
                  {
                    OFFSET 0 0 0
                  }
                }
              }
            }
          }
        }
      }
    }
  }
}
MOTION
Frames:	4
Frame Time:	0.0333333
0.0502725 90.428 0.591541 30.8747 -85.2468 68.4034 0 -2.38419e-007 1.42109e-014 -90.9397 6.01288 -89.062 -4.6544 -2.06234 -2.38419e-007 -33.3298 2.80761 177.142 10.2279 -0.119791 3.68907 22.3693 77.939 -16.0545 15.0421 -4.76837e-007 1.77636e-015 4.13425 -4.90863 -7.12004 10.2279 -0.119789 -3.68898 -143.913 76.6374 150.173 15.0421 9.53675e-007 -8.88178e-016 -4.13359 4.94754 -7.27984 3.08485 0.450482 0.0515547 23.8528 -2.80875 -4.3709 -4.00955e-006 2.5068e-008 -6.20578 -86.985 1.72641 -170.389 6.73248 -7.62939e-006 -2.84217e-014 -82.7338 -1.18171e-005 -1.48208e-005 8.08524 3.8147e-006 -1.43051e-006 84.8955 8.41778e-006 -2.23298e-007 8.9752 -3.8147e-006 -1.77636e-015 -92.4622 8.44059 1.82084 1.58764 -0.234974 -0.295146 -167.902 -5.62873 -176.873 3.03847 1.90735e-006 -3.55271e-015 -16.263 3.70417e-007 8.49932e-008 1.65461 0.933674 1.02415 65.446 32.8362 -26.1303 3.51774 5.32907e-015 -9.53674e-007 -3.09233 9.23839e-006 1.02052e-005 1.47311 1.01062 -1.16706 77.3581 -46.0122 27.3781 3.94898 7.10543e-015 2.38419e-007 -18.2138 7.01293e-006 1.22596e-005 1.07523 1.64227 0.022377 47.7263 -5.99634 -1.82216 4.09656 8.88178e-015 -8.88178e-016 19.4483 0.000811918 0.00226945 2.04237 1.88277 1.65987e-008 70.5004 0.0328019 -9.95575 -3.61984e-006 -2.50684e-008 6.20577 -108.771 8.46355 174.341 6.73247 -3.8147e-006 0 -117.803 -1.11385e-006 -5.644e-008 8.08521 7.6294e-006 0.000685692 78.2373 4.82849e-006 -1.07654e-005 8.97521 -5.32907e-013 0.000779152 -47.5525 -3.06153 10.4026 1.6547 0.93378 -1.02398 46.9536 -43.5397 26.4267 3.51775 7.88702e-013 -0.000616073 -6.14426 0.00126335 -0.0104323 1.0752 1.64221 -0.0219278 37.0374 5.56379 2.89202 4.09656 -2.06324e-012 -0.00119591 -11.9517 0.00760074 -0.0279546 1.5876 -0.234959 0.295259 171.315 6.29022 179.041 3.03848 1.90735e-006 -7.10543e-015 -18.181 -0.0114293 0.0329939 1.47299 1.0105 1.16749 31.264 51.4146 -18.697 3.94897 -5.55111e-015 -3.55271e-015 1.44261 6.10047e-006 9.8787e-006 2.04236 1.88278 5.98113e-009 66.0189 0.756234 0.334055 8.61703 -0.00682068 9.53739e-007 -4.53085 1.25916 -1.64304 0.267448 -6.12423 -7.49305 -78.851 -10.6915 93.6864 14.7158 1.90735e-006 3.8147e-006 84.7439 5.0527 7.25298 19.0859 7.62939e-006 -1.52588e-005 -85.0405 -8.86803 39.3778 2.68908 -0.270641 0.785282 -43.8618 2.47201 11.1333 21.1083 -7.62939e-006 5.72205e-006 5.62166 0.57144 24.5579 27.642 4.76836e-007 7.6294e-006 -2.63317 -0.0472995 43.6057 0.267449 -6.12423 7.49305 -78.851 10.6915 -93.6864 14.7158 2.13163e-014 -3.8147e-006 84.7439 -5.05272 -7.253 19.0859 -3.55271e-014 -3.8147e-006 -85.0405 8.86805 -39.3778 2.68908 -0.27064 -0.785296 -43.7939 -2.4635 -9.29402 21.1083 1.52588e-005 -7.6294e-006 5.65097 -0.591082 -26.2351 27.642 4.76837e-006 -5.72205e-006 -2.63318 0.0473049 -43.6057 7.60077 -1.43196 1.32552e-008 33.2583 2.99023 -11.7179 3.64931 -0.0022049 -3.1092e-011 42.4905 7.08715 4.87776 3.32466 -0.00263214 8.89301e-005 24.9576 4.6138 4.56379 4.63256 -0.573479 8.779e-010 -17.4729 -11.643 5.14399 1.0539 2.23561 1.88002e-006 -98.9175 -0.0394135 -179.966 
0.0502726 90.3591 0.61221 32.1388 -85.1593 69.4164 0 -2.38419e-007 0 -90.9395 5.89959 -89.0639 -4.6544 -2.06234 -2.38419e-007 -33.3587 2.80904 177.144 10.2279 -0.119791 3.68907 22.3603 77.9253 -15.9936 15.0421 -4.76837e-007 1.77636e-015 4.2188 -4.91268 -5.01916 10.2279 -0.119789 -3.68898 -143.915 76.6316 150.228 15.0421 9.53675e-007 0 -4.21884 4.94621 -5.15624 3.08749 0.431491 0.0515547 23.6611 -2.81109 -4.38776 -4.01005e-006 2.41197e-008 -6.20578 -88.7196 1.07052 -169.88 6.73248 -7.62939e-006 -3.01981e-014 -84.1488 -1.4577e-006 -1.61055e-005 8.08524 3.8147e-006 -1.43051e-006 85.3893 8.38611e-006 -2.82288e-007 8.9752 -3.8147e-006 -4.44089e-015 -93.2194 8.37655 1.34212 1.58764 -0.234974 -0.295146 -167.829 -5.62153 -176.868 3.03847 1.90735e-006 3.55271e-015 -15.3367 3.53236e-007 7.78635e-008 1.65461 0.933674 1.02415 65.4327 32.8417 -26.1231 3.51774 3.55271e-015 -9.53674e-007 -2.29262 9.82047e-006 1.04155e-006 1.47311 1.01062 -1.16706 77.155 -46.0829 27.2323 3.94898 3.55271e-015 2.38419e-007 -17.2718 7.16896e-006 1.21602e-005 1.07523 1.64227 0.022377 47.5229 -5.98817 -1.84185 4.09656 -1.77636e-015 -8.88178e-016 20.3657 0.000728347 0.00193356 2.04237 1.88277 1.72607e-008 69.7782 -0.0139282 -10.0185 -3.61935e-006 -2.41198e-008 6.20577 -109.658 8.3468 174.49 6.73247 -3.8147e-006 -5.32907e-015 -118.349 -1.11694e-006 -3.93363e-008 8.08521 7.62939e-006 0.000685692 78.0723 3.87541e-006 -1.09517e-005 8.97521 -1.10489e-012 0.000779152 -47.1798 -3.18951 10.2889 1.6547 0.93378 -1.02398 46.5556 -43.6832 26.151 3.51775 1.43174e-012 -0.000616073 -4.5767 0.000977385 -0.0104631 1.0752 1.64221 -0.0219278 37.0198 5.56291 2.89373 4.09656 -2.3217e-012 -0.00119591 -11.1906 0.00612059 -0.0224516 1.5876 -0.234959 0.295259 171.544 6.28438 179.025 3.03848 1.90735e-006 -7.10543e-015 -17.3617 -0.0105151 0.0317427 1.47299 1.0105 1.16749 31.3715 51.3918 -18.7811 3.94897 -3.60822e-015 0 2.05954 6.23869e-006 9.88354e-006 2.04236 1.88278 5.94418e-009 66.1016 0.749483 0.329757 8.61703 -0.00682068 9.5374e-007 -4.23986 1.31873 -1.86916 0.267448 -6.12423 -7.49305 -80.0302 -10.6721 88.2236 14.7158 1.90735e-006 3.8147e-006 87.5568 5.39014 7.05502 19.0859 7.62939e-006 -1.52588e-005 -85.6062 -12.0756 40.4737 2.68908 -0.270641 0.785282 -43.8604 2.47016 11.5411 21.1083 -7.62939e-006 5.72205e-006 5.96647 0.879738 24.99 27.642 4.76836e-007 7.6294e-006 -2.63286 -0.0465205 44.3835 0.267449 -6.12423 7.49305 -80.0302 10.6721 -88.2235 14.7158 7.10543e-015 -3.8147e-006 87.5568 -5.39015 -7.05502 19.0859 -2.13163e-014 -3.8147e-006 -85.6062 12.0756 -40.4738 2.68908 -0.27064 -0.785296 -43.803 -2.45986 -9.95178 21.1083 1.52588e-005 -7.6294e-006 6.02854 -0.921928 -26.7539 27.642 4.76837e-006 -5.72205e-006 -2.63286 0.0465248 -44.3835 7.60077 -1.43196 1.38765e-008 33.3795 2.86247 -11.8642 3.64931 -0.0022049 -3.27667e-011 42.242 7.31756 4.91984 3.32466 -0.00263214 8.89301e-005 24.6811 4.17549 4.14933 4.63256 -0.573479 6.10553e-010 -17.3768 -11.114 5.28805 1.0539 2.23561 1.88207e-006 -98.9175 -0.0394287 -179.966 
0.0502726 90.2394 0.620315 33.2333 -85.1031 70.2273 -7.10543e-015 -2.38419e-007 1.42109e-014 -90.9388 5.49045 -89.0706 -4.6544 -2.06234 -2.38419e-007 -33.3295 2.80759 177.142 10.2279 -0.119791 3.68907 22.3665 77.9389 -16.0572 15.0421 -4.76837e-007 0 4.30426 -4.91366 -2.89747 10.2279 -0.119789 -3.68898 -143.915 76.6377 150.17 15.0421 9.53675e-007 0 -4.30483 4.94169 -3.01163 3.09014 0.412311 0.0515547 23.4611 -2.8 -4.39336 -4.01018e-006 2.30068e-008 -6.20578 -90.463 0.395563 -169.396 6.73248 -7.62939e-006 -2.93099e-014 -85.5607 -2.03381e-006 -1.60527e-005 8.08524 3.8147e-006 -1.43051e-006 85.8708 -1.63e-006 -1.06246e-006 8.9752 -3.8147e-006 -7.99361e-015 -93.9733 8.31603 0.869494 1.58764 -0.234974 -0.295146 -167.755 -5.6142 -176.862 3.03847 1.90735e-006 0 -14.4011 9.54252e-008 1.009e-006 1.65461 0.933674 1.02415 65.4192 32.8473 -26.1158 3.51774 8.88178e-015 -9.53674e-007 -1.485 9.67516e-006 9.97821e-006 1.47311 1.01062 -1.16706 76.9495 -46.154 27.0845 3.94898 -7.10543e-015 2.38419e-007 -16.3204 7.32139e-006 1.20581e-005 1.07523 1.64227 0.022377 47.3175 -5.97987 -1.86172 4.09656 -3.55271e-015 -3.55271e-015 21.2922 0.000633668 0.00159873 2.04237 1.88277 1.79285e-008 69.049 -0.0593011 -10.0845 -3.61921e-006 -2.3007e-008 6.20577 -110.372 8.23863 174.637 6.73247 -3.8147e-006 0 -118.608 -1.12097e-006 -2.68759e-008 8.08521 7.62939e-006 0.000685692 77.8429 1.36779e-005 -8.83054e-006 8.97521 -1.58451e-012 0.000779152 -46.9576 -3.27793 10.2366 1.6547 0.93378 -1.02398 46.1517 -43.8268 25.8704 3.51775 1.93978e-012 -0.000616073 -2.99361 0.000687836 -0.0104863 1.0752 1.64221 -0.0219278 37.002 5.56201 2.89546 4.09656 -2.47446e-012 -0.00119591 -10.4219 0.00477112 -0.0168353 1.5876 -0.234959 0.295259 171.775 6.27838 179.009 3.03848 1.90735e-006 -8.88178e-015 -16.5343 -0.00962841 0.0304523 1.47299 1.0105 1.16749 31.48 51.3687 -18.8658 3.94897 -2.9976e-015 -3.55271e-015 2.68256 5.91188e-006 -7.36951e-008 2.04236 1.88278 5.91498e-009 66.1852 0.742657 0.325439 8.61703 -0.00682068 9.53741e-007 -3.94595 1.36737 -2.10171 0.267448 -6.12423 -7.49305 -81.1288 -11.2263 82.9332 14.7158 1.90735e-006 3.8147e-006 90.206 5.70745 6.83734 19.0859 7.62939e-006 -1.52588e-005 -85.925 -15.1138 41.6567 2.68908 -0.270641 0.785282 -43.8614 2.47135 11.9166 21.1083 -7.62939e-006 5.72205e-006 6.31235 1.19373 25.4244 27.642 4.76836e-007 7.6294e-006 -2.63255 -0.0457322 45.1691 0.267449 -6.12423 7.49305 -81.1288 11.2262 -82.9332 14.7158 -2.13163e-014 -3.8147e-006 90.206 -5.70744 -6.83732 19.0859 -3.90798e-014 -3.8147e-006 -85.925 15.1138 -41.6568 2.68908 -0.27064 -0.785296 -43.8098 -2.45673 -10.6015 21.1083 1.52588e-005 -7.6294e-006 6.40686 -1.25954 -27.2757 27.642 4.76837e-006 -5.72205e-006 -2.63255 0.0457349 -45.1691 7.60077 -1.43196 1.45161e-008 33.4301 2.79133 -11.9262 3.64931 -0.0022049 -3.40621e-011 42.0568 7.50886 4.94206 3.32466 -0.00263214 8.89301e-005 24.2688 3.68115 3.71877 4.63256 -0.573479 2.91286e-010 -17.2752 -10.4427 5.35361 1.0539 2.23561 1.8845e-006 -98.9175 -0.0394287 -179.966 
0.0502729 90.0587 0.617062 34.3306 -85.0756 70.9855 -7.10543e-015 -2.38419e-007 0 -90.9382 5.09626 -89.0771 -4.6544 -2.06234 -2.38419e-007 -33.2368 2.80296 177.138 10.2279 -0.119791 3.68907 22.3677 77.9732 -16.2205 15.0421 -4.76837e-007 8.88178e-016 4.39054 -4.91145 -0.754957 10.2279 -0.119789 -3.68898 -143.891 76.6663 149.983 15.0421 9.53675e-007 0 -4.39143 4.9339 -0.845991 3.09284 0.392901 0.0515547 23.2196 -2.7781 -4.39085 -4.01007e-006 2.18683e-008 -6.20578 -92.2383 -0.293338 -168.94 6.73248 -7.62939e-006 -3.10862e-014 -86.9587 -1.06307e-005 -1.56328e-005 8.08524 3.8147e-006 -1.43051e-006 86.3393 -1.64941e-006 -1.03791e-006 8.9752 -3.8147e-006 -6.21725e-015 -94.7182 8.26119 0.405585 1.58764 -0.234974 -0.295146 -167.681 -5.60681 -176.857 3.03847 1.90735e-006 0 -13.4564 3.18811e-007 6.34678e-008 1.65461 0.933674 1.02415 65.4056 32.8529 -26.1084 3.51774 1.06581e-014 -9.53674e-007 -0.669449 9.99468e-006 8.33748e-007 1.47311 1.01062 -1.16706 76.7412 -46.2254 26.9346 3.94898 7.10543e-015 2.38419e-007 -15.3598 7.47108e-006 1.19535e-005 1.07523 1.64227 0.022377 47.054 -5.96984 -1.88783 4.09656 -7.10543e-015 -3.10862e-015 22.2278 0.000527537 0.0012649 2.04237 1.88277 1.85254e-008 68.3129 -0.103151 -10.1539 -3.61933e-006 -2.18683e-008 6.20577 -110.952 8.10034 174.81 6.73247 -3.8147e-006 0 -118.564 -1.12271e-006 -1.92272e-008 8.08521 7.62939e-006 0.000685692 77.5156 3.90361e-006 -1.09201e-005 8.97521 -2.03926e-012 0.000779152 -46.8851 -3.33394 10.2508 1.6547 0.93378 -1.02398 45.7426 -43.9701 25.5855 3.51775 2.44071e-012 -0.000616073 -1.395 0.000394905 -0.0105016 1.0752 1.64221 -0.0219278 36.984 5.56111 2.8972 4.09656 -2.41229e-012 -0.00119591 -9.66815 0.00513653 -0.020344 1.5876 -0.234959 0.295259 172.009 6.27234 178.992 3.03848 1.90735e-006 -7.10543e-015 -15.6988 -0.00877164 0.0291247 1.47299 1.0105 1.16749 31.5385 51.3562 -18.9115 3.94897 -5.77316e-015 3.55271e-015 3.24152 5.99384e-006 8.82229e-007 2.04236 1.88278 5.90545e-009 66.2696 0.735756 0.321101 8.61703 -0.00682068 9.53741e-007 -3.65666 1.40091 -2.32647 0.267448 -6.12423 -7.49305 -82.1745 -11.089 76.7973 14.7158 1.90735e-006 3.8147e-006 92.6468 5.9988 6.60107 19.0859 7.62939e-006 -1.52588e-005 -86.0245 -17.9121 42.892 2.68908 -0.270641 0.785282 -43.8606 2.47143 12.2604 21.1083 -7.62939e-006 5.72205e-006 6.65926 1.51348 25.8613 27.642 4.76836e-007 7.62939e-006 -2.63166 -0.0456081 45.4783 0.267449 -6.12423 7.49305 -82.1744 11.0891 -76.7973 14.7158 -1.42109e-014 -3.8147e-006 92.6468 -5.99881 -6.60105 19.0859 -2.84217e-014 -3.8147e-006 -86.0244 17.9121 -42.892 2.68908 -0.27064 -0.785296 -43.8201 -2.45652 -11.2206 21.1083 1.52588e-005 -7.6294e-006 6.78411 -1.6027 -27.7975 27.642 4.76836e-006 -5.72205e-006 -2.63166 0.0456119 -45.4784 7.60077 -1.43196 1.5102e-008 33.4223 2.76622 -11.9137 3.64931 -0.0022049 -3.4905e-011 41.9134 7.68486 4.94271 3.32466 -0.00263214 8.89301e-005 23.7002 3.09389 3.23393 4.63256 -0.573479 -1.15316e-010 -17.0732 -9.60487 5.35577 1.0539 2.23561 1.88747e-006 -98.9175 -0.0393982 -179.966 
